<?xml version="1.0" encoding="UTF-8" standalone="no"?><!DOCTYPE svg PUBLIC "-//W3C//DTD SVG 1.1//EN" "http://www.w3.org/Graphics/SVG/1.1/DTD/svg11.dtd"><svg width="980px" height="915px" version="1.1" xmlns="http://www.w3.org/2000/svg" xmlns:xlink="http://www.w3.org/1999/xlink" xml:space="preserve" xmlns:serif="http://www.serif.com/" style="fill-rule:evenodd;clip-rule:evenodd;stroke-linejoin:round;stroke-miterlimit:2;"><g transform="matrix(1,0,0,1,20.9571,10.9079)"><g id="Layer-1" serif:id="Layer 1" transform="matrix(4.16667,0,0,4.16667,0,0)"><g transform="matrix(1,0,0,1,107.5,107.677)"><rect x="-107.5" y="-107.5" width="216" height="216" style="fill:rgb(55,174,109);"/></g><g transform="matrix(1,0,0,1,-2.92562,-27.492)"><path d="M108.44,87.299C108.44,71.131 107.084,59.674 104.374,52.929C101.663,46.186 96.133,40.594 87.784,36.152C79.435,31.713 69.332,29.492 57.478,29.492C46.635,29.492 35.381,31.524 27.72,35.587C20.057,39.651 14.508,45.285 11.076,52.489C7.642,59.695 5.926,71.088 5.926,86.67C5.926,97.478 7.135,106.359 9.558,113.312C11.979,120.267 15.034,125.712 18.72,129.649C22.407,133.587 29.924,139.912 41.274,148.624C52.621,157.254 59.742,163.412 62.634,167.097C65.453,170.785 66.863,178.617 66.863,190.597C66.863,196.044 66.121,200.148 64.64,202.912C63.158,205.677 60.899,207.059 57.863,207.059C54.827,207.059 52.713,205.972 51.52,203.792C50.327,201.614 49.731,196.713 49.731,189.089L49.731,164.333L7.335,164.333L7.335,177.653C7.335,192.902 8.672,204.672 11.347,212.966C14.021,221.26 19.678,228.089 28.316,233.449C36.953,238.81 47.381,241.492 59.598,241.492C70.729,241.492 80.488,239.167 88.874,234.518C97.259,229.868 102.916,224.109 105.843,217.238C108.771,210.37 110.235,199.688 110.235,185.193C110.235,165.255 107.595,150.804 102.319,141.838C97.042,132.875 84.244,121.404 63.923,107.425C56.837,102.571 52.537,98.424 51.024,94.986C49.438,91.55 48.647,86.435 48.647,79.645C48.647,74.363 49.352,70.424 50.761,67.824C52.171,65.225 56.248,63.925 58.996,63.925C61.525,63.925 63.333,64.889 64.417,66.815C65.502,68.743 66.044,73.224 66.044,80.261L66.044,95.341L108.44,95.341L108.44,87.299Z" style="fill:white;fill-rule:nonzero;"/></g><g transform="matrix(1,0,0,1,-6.92562,-25.492)"><path d="M194.818,125.332C204.287,122.769 210.63,119.096 213.848,114.31C217.063,109.525 218.673,101.066 218.673,88.931C218.673,70.988 216.396,57.98 211.842,49.903C207.288,41.829 201.305,36.469 193.897,33.819C186.486,31.17 175.589,29.845 161.205,29.845L115.665,29.845L115.665,237.492L168.47,237.492C186.83,237.492 198.974,236.252 204.902,233.771C210.829,231.29 212.149,226.67 214.859,219.911C217.57,213.153 218.926,202.759 218.926,188.727L218.926,169.478C218.926,155.961 217.045,145.929 213.287,139.384C209.528,132.839 205.371,128.156 194.818,125.332ZM176.277,85.124C176.277,97.436 175.662,104.897 174.434,107.505C173.204,110.114 170.349,111.416 165.868,111.416C164.783,111.416 163.265,111.46 161.314,111.545L161.314,65.372C166.012,65.459 169.175,65.843 170.801,66.527C172.428,67.212 173.746,68.857 174.759,71.465C175.77,74.074 176.277,78.627 176.277,85.124ZM176.277,182.598C176.277,190.979 175.391,196.238 173.62,198.374C171.848,200.512 167.746,201.709 161.314,201.965L161.314,143.865C168.107,144.121 172.301,145.192 173.891,147.071C175.481,148.953 176.277,154.34 176.277,163.232L176.277,182.598Z" style="fill:white;fill-rule:nonzero;"/></g><g transform="matrix(0.223081,-0.0471496,0.0588775,0.27857,-1.84539,-12.8047)"><text x="-130.386px" y="813.744px" style="font-family:'Tangerine-Bold', 'Tangerine';font-weight:700;font-size:983.87px;fill:rgb(35,31,32);">W</text></g></g></g></svg>